<svg xmlns="http://www.w3.org/2000/svg" viewBox="0 0 186.42 99.76"><defs><style>.a{isolation:isolate;}.b{fill:#d60e41;}.c,.d{fill:#d9b600;}.c,.e{mix-blend-mode:multiply;}</style></defs><title>vrac-logo</title><g class="a"><polygon class="b" points="132.01 0.63 121.28 0 132.79 42.85 143.89 43.49 132.01 0.63"/><polygon class="c" points="125.67 0.26 125 0.22 118.4 16.4 108.21 41.41 108.88 41.45 118.99 16.64 125.67 0.26"/><polygon class="c" points="124.44 0.18 123.77 0.14 117.32 15.96 106.98 41.34 107.65 41.38 117.91 16.2 124.44 0.18"/><polygon class="c" points="121.98 0.04 121.31 0 115.16 15.08 104.52 41.2 105.19 41.24 115.75 15.32 121.98 0.04"/><polygon class="c" points="126.9 0.33 126.22 0.29 119.48 16.84 109.44 41.48 110.11 41.52 120.07 17.08 126.9 0.33"/><polygon class="c" points="123.21 0.11 122.54 0.07 116.24 15.52 105.75 41.27 106.42 41.31 116.83 15.76 123.21 0.11"/><polygon class="c" points="130.58 0.54 129.91 0.5 122.72 18.16 113.13 41.7 113.8 41.74 123.31 18.4 130.58 0.54"/><polygon class="c" points="129.35 0.47 128.68 0.43 121.64 17.72 111.9 41.63 112.57 41.67 122.23 17.96 129.35 0.47"/><polygon class="c" points="128.12 0.4 127.45 0.36 120.56 17.28 110.67 41.56 111.34 41.6 121.15 17.52 128.12 0.4"/><polygon class="c" points="142.16 37.24 117.48 35.8 117.69 35.28 142.01 36.7 141.83 36.05 117.94 34.66 118.15 34.14 141.68 35.51 141.5 34.86 118.41 33.52 118.62 33 141.35 34.33 141.17 33.68 118.87 32.38 119.08 31.86 141.02 33.14 140.84 32.49 119.33 31.24 119.55 30.72 140.69 31.95 140.51 31.31 119.8 30.1 120.01 29.58 140.36 30.77 140.18 30.12 120.26 28.96 120.47 28.44 140.03 29.58 139.85 28.93 120.73 27.82 120.94 27.3 139.7 28.39 139.53 27.75 121.19 26.68 124.39 18.84 131.81 0.61 131.14 0.57 123.8 18.6 114.36 41.77 115.03 41.81 117.22 36.42 142.34 37.88 142.16 37.24"/><polygon class="d" points="120.9 26.93 117.15 36.05 131.16 37.01 128.61 27.3 120.9 26.93"/><path class="b" d="M171.56,56.25a22.5,22.5,0,1,1-3.71-44.84l0.89,10.78a11.68,11.68,0,0,0,1.93,23.28Z" transform="translate(-4.65 -3.75)"/><path class="c" d="M177.9,24.58l-0.24-.23-0.3-.22a13.07,13.07,0,0,0-3.28-1.88,13.27,13.27,0,0,0-3.68-.77,3.46,3.46,0,0,0-.71,0h-0.54c-0.3,0-1.69.11-1.69,0.11l0.06,0.69s1.38-.1,1.67-0.1h0.51a3.12,3.12,0,0,1,.67,0,11.37,11.37,0,0,1,6.57,2.5l0.28,0.21,0.23,0.22,0.38,0.35,0.33,0.3,0.5-.48L178.3,25Z" transform="translate(-4.65 -3.75)"/><path class="c" d="M178.74,23.64l-0.27-.25-0.33-.24a14.33,14.33,0,0,0-3.61-2.06,14.49,14.49,0,0,0-4.06-.85,4.09,4.09,0,0,0-.78,0l-0.6,0c-0.33,0-1.74.11-1.74,0.11L167.41,21s1.4-.1,1.72-0.11h0.57a3.74,3.74,0,0,1,.74,0,12.62,12.62,0,0,1,7.29,2.77L178,23.91l0.25,0.24,0.42,0.39,0.37,0.34,0.5-.48L179.18,24Z" transform="translate(-4.65 -3.75)"/><path class="c" d="M179.58,22.69l-0.29-.28-0.36-.27A14.57,14.57,0,0,0,170.54,19a4.59,4.59,0,0,0-.85,0L169,19c-0.36,0-1.79.11-1.79,0.11l0.06,0.69s1.42-.11,1.76-0.11l0.63,0a4.39,4.39,0,0,1,.81,0,13.91,13.91,0,0,1,8,3l0.34,0.25,0.28,0.26,0.46,0.43L180,24l0.5-.48-0.42-.39Z" transform="translate(-4.65 -3.75)"/><path class="c" d="M180.42,21.75l-0.32-.3-0.39-.29a15.86,15.86,0,0,0-9.1-3.46,5.34,5.34,0,0,0-.92,0l-0.71,0c-0.39,0-1.84.12-1.84,0.12l0.06,0.69s1.44-.11,1.81-0.11l0.68,0a5.05,5.05,0,0,1,.88,0,15.16,15.16,0,0,1,8.71,3.31L179.65,22l0.3,0.29,0.5,0.46,0.43,0.4,0.5-.48-0.45-.42Z" transform="translate(-4.65 -3.75)"/><path class="c" d="M181.25,20.8l-0.34-.32-0.42-.31a17.12,17.12,0,0,0-9.81-3.73,6,6,0,0,0-1,0l-0.76,0c-0.42,0-1.89.12-1.89,0.12l0.06,0.69s1.45-.11,1.86-0.12l0.73,0a5.59,5.59,0,0,1,1,0,16.43,16.43,0,0,1,9.42,3.58l0.4,0.3,0.33,0.31,0.54,0.5,0.47,0.44,0.5-.48-0.49-.46Z" transform="translate(-4.65 -3.75)"/><path class="c" d="M182.09,19.86l-0.37-.34-0.45-.34a18.37,18.37,0,0,0-10.52-4,6.79,6.79,0,0,0-1.06,0l-0.82,0c-0.45,0-1.93.12-1.93,0.12L167,16s1.47-.11,1.91-0.12l0.79,0a6.56,6.56,0,0,1,1,0,17.68,17.68,0,0,1,10.14,3.85L181.28,20l0.36,0.33,0.58,0.54,0.5,0.47,0.5-.48-0.52-.49Z" transform="translate(-4.65 -3.75)"/><path class="c" d="M182.93,18.91l-0.4-.37-0.48-.36a19.64,19.64,0,0,0-11.24-4.27,7.6,7.6,0,0,0-1.13,0l-0.88,0c-0.48,0-2,.12-2,0.12l0.06,0.69s1.49-.11,2-0.12l0.85,0a7.24,7.24,0,0,1,1.09,0,19,19,0,0,1,10.85,4.12l0.46,0.35,0.38,0.35L183.09,20l0.54,0.51,0.5-.48-0.55-.52Z" transform="translate(-4.65 -3.75)"/><path class="c" d="M183.77,18l-0.42-.39-0.5-.38a20.9,20.9,0,0,0-12-4.54,8.24,8.24,0,0,0-1.21,0l-0.93,0c-0.51,0-2,.13-2,0.13l0.06,0.69s1.5-.11,2-0.13l0.9,0a7.88,7.88,0,0,1,1.17,0,20.21,20.21,0,0,1,11.56,4.39l0.49,0.37,0.4,0.38L184,19.1l0.57,0.54,0.5-.48-0.59-.56Z" transform="translate(-4.65 -3.75)"/><path class="c" d="M185.32,17.7L184.6,17l-0.45-.41-0.53-.41A22.17,22.17,0,0,0,171,11.4a9.14,9.14,0,0,0-1.28,0l-1,0c-0.54,0-2.07.13-2.07,0.13l0.06,0.69s1.52-.11,2.05-0.13l1,0a8.78,8.78,0,0,1,1.24,0,21.46,21.46,0,0,1,12.27,4.66l0.52,0.4,0.43,0.4,0.7,0.65,0.6,0.57,0.5-.48Z" transform="translate(-4.65 -3.75)"/><path class="c" d="M172,46a7.64,7.64,0,0,0,.9-0.21,12.31,12.31,0,0,0,2.17-.8,13.64,13.64,0,0,0,2.25-1.41,13.41,13.41,0,0,0,1.9-1.86,12.39,12.39,0,0,0,1.3-1.93,7.25,7.25,0,0,0,.41-0.83,5.5,5.5,0,0,0,.28-0.66l0.22-.58-0.66-.21-0.21.55a5,5,0,0,1-.26.62,6.29,6.29,0,0,1-.39.78,11.74,11.74,0,0,1-1.22,1.82A12.67,12.67,0,0,1,176.94,43a13,13,0,0,1-2.12,1.34,11.79,11.79,0,0,1-2,.76,6.83,6.83,0,0,1-.85.2,4.2,4.2,0,0,1-.67.11c-0.38,0-1.81.18-1.81,0.18l0.06,0.69s1.45-.13,1.84-0.18A4.69,4.69,0,0,0,172,46Z" transform="translate(-4.65 -3.75)"/><path class="c" d="M172.29,47.22a8.63,8.63,0,0,0,1-.23,13.65,13.65,0,0,0,2.39-.89,13.68,13.68,0,0,0,4.57-3.61,13.67,13.67,0,0,0,1.43-2.12,7.71,7.71,0,0,0,.46-0.91,6.25,6.25,0,0,0,.31-0.73l0.24-.64L182,37.87l-0.23.61a5.81,5.81,0,0,1-.29.69,7.48,7.48,0,0,1-.43.87,13.07,13.07,0,0,1-1.35,2,13,13,0,0,1-4.34,3.43,12.94,12.94,0,0,1-2.27.84,8.16,8.16,0,0,1-.95.22,5.19,5.19,0,0,1-.74.12c-0.41.05-1.87,0.18-1.87,0.18l0.06,0.69s1.47-.13,1.9-0.19A5.47,5.47,0,0,0,172.29,47.22Z" transform="translate(-4.65 -3.75)"/><path class="c" d="M172.53,48.46a9.69,9.69,0,0,0,1.09-.25,14.9,14.9,0,0,0,2.61-1,15,15,0,0,0,5-3.95A14.92,14.92,0,0,0,182.77,41a8.78,8.78,0,0,0,.5-1,7.4,7.4,0,0,0,.33-0.79l0.26-.7-0.66-.22-0.25.67a7.12,7.12,0,0,1-.32.76,8.71,8.71,0,0,1-.48,1,14.06,14.06,0,0,1-1.49,2.21A15.2,15.2,0,0,1,178.5,45a15.45,15.45,0,0,1-2.58,1.62,14.2,14.2,0,0,1-2.49.93,9,9,0,0,1-1,.24,6.07,6.07,0,0,1-.81.13c-0.45.06-1.93,0.19-1.93,0.19l0.06,0.69s1.49-.13,2-0.19A6.32,6.32,0,0,0,172.53,48.46Z" transform="translate(-4.65 -3.75)"/><path class="c" d="M172.76,49.7a10.82,10.82,0,0,0,1.18-.27,16.26,16.26,0,0,0,2.84-1.05,17.42,17.42,0,0,0,2.94-1.85,17.19,17.19,0,0,0,2.48-2.43,16.3,16.3,0,0,0,1.69-2.51,10.07,10.07,0,0,0,.54-1.08,8,8,0,0,0,.36-0.86l0.28-.76-0.66-.21-0.27.73a7.64,7.64,0,0,1-.35.82,9.25,9.25,0,0,1-.52,1,15.48,15.48,0,0,1-1.62,2.41,15.53,15.53,0,0,1-5.18,4.1,15.61,15.61,0,0,1-2.71,1,10.74,10.74,0,0,1-1.13.26,6.82,6.82,0,0,1-.88.14c-0.49.06-2,.2-2,0.2L169.81,50s1.51-.14,2-0.2A6.92,6.92,0,0,0,172.76,49.7Z" transform="translate(-4.65 -3.75)"/><path class="c" d="M173,50.94a12.2,12.2,0,0,0,1.27-.29,17.31,17.31,0,0,0,3.06-1.14,17.49,17.49,0,0,0,5.84-4.61A17.49,17.49,0,0,0,185,42.19a11.2,11.2,0,0,0,.58-1.17,9.47,9.47,0,0,0,.39-0.93l0.3-.82-0.66-.21-0.29.79a8.88,8.88,0,0,1-.38.89,10.67,10.67,0,0,1-.56,1.12,16.87,16.87,0,0,1-1.75,2.6A16.79,16.79,0,0,1,177,48.89,16.67,16.67,0,0,1,174.09,50a11.41,11.41,0,0,1-1.22.28,7.45,7.45,0,0,1-1,.16c-0.53.07-2.06,0.2-2.06,0.2l0.06,0.69s1.54-.14,2.09-0.21A8.06,8.06,0,0,0,173,50.94Z" transform="translate(-4.65 -3.75)"/><path class="c" d="M173.24,52.18a13.52,13.52,0,0,0,1.36-.32,18.63,18.63,0,0,0,3.28-1.22,18.74,18.74,0,0,0,6.26-4.95,18.73,18.73,0,0,0,2-2.9,12.44,12.44,0,0,0,.63-1.25,10,10,0,0,0,.42-1l0.33-.88-0.66-.22-0.31.85a9.64,9.64,0,0,1-.4,1,11.64,11.64,0,0,1-.6,1.21,18.14,18.14,0,0,1-1.88,2.8,18.07,18.07,0,0,1-6,4.77,18.05,18.05,0,0,1-3.16,1.18,12.58,12.58,0,0,1-1.31.3,8.58,8.58,0,0,1-1,.17c-0.57.07-2.12,0.21-2.12,0.21L170,52.56s1.56-.14,2.15-0.21A9,9,0,0,0,173.24,52.18Z" transform="translate(-4.65 -3.75)"/><path class="c" d="M173.48,53.42a14.33,14.33,0,0,0,1.46-.34,20,20,0,0,0,3.51-1.31,20,20,0,0,0,6.68-5.28,20.07,20.07,0,0,0,2.09-3.1,13.11,13.11,0,0,0,.67-1.34,11,11,0,0,0,.45-1.06l0.35-.94L188,39.84l-0.33.91a10.83,10.83,0,0,1-.43,1,12.85,12.85,0,0,1-.64,1.29,19.37,19.37,0,0,1-2,3,19.33,19.33,0,0,1-6.45,5.1,19.23,19.23,0,0,1-3.38,1.26,13.74,13.74,0,0,1-1.41.32,9.32,9.32,0,0,1-1.1.18c-0.61.07-2.18,0.22-2.18,0.22l0.06,0.69s1.58-.15,2.21-0.22A9.81,9.81,0,0,0,173.48,53.42Z" transform="translate(-4.65 -3.75)"/><path class="c" d="M173.71,54.66a15.44,15.44,0,0,0,1.55-.36A21.17,21.17,0,0,0,179,52.91a21.23,21.23,0,0,0,7.1-5.61A21.21,21.21,0,0,0,188.31,44a14.1,14.1,0,0,0,.71-1.42c0.2-.43.36-0.81,0.48-1.13l0.37-1-0.66-.21-0.36,1a11.81,11.81,0,0,1-.46,1.09,13.69,13.69,0,0,1-.69,1.38,20.45,20.45,0,0,1-2.15,3.19,20.56,20.56,0,0,1-6.87,5.43,20.44,20.44,0,0,1-3.61,1.34,14.92,14.92,0,0,1-1.5.35,10.4,10.4,0,0,1-1.17.19c-0.65.08-2.24,0.22-2.24,0.22l0.06,0.69s1.6-.15,2.28-0.23A10.75,10.75,0,0,0,173.71,54.66Z" transform="translate(-4.65 -3.75)"/><path class="c" d="M190.41,40.63l-0.38,1c-0.11.33-.28,0.72-0.49,1.16a14.94,14.94,0,0,1-.73,1.46,22,22,0,0,1-2.28,3.38,21.85,21.85,0,0,1-7.29,5.77,21.86,21.86,0,0,1-3.83,1.43,16.19,16.19,0,0,1-1.59.37,11.35,11.35,0,0,1-1.24.2c-0.69.08-2.3,0.23-2.3,0.23l0.06,0.69s1.63-.15,2.34-0.23A11.87,11.87,0,0,0,174,55.9a16.79,16.79,0,0,0,1.64-.38,22.48,22.48,0,0,0,4-1.47,22.53,22.53,0,0,0,7.52-5.95,22.53,22.53,0,0,0,2.35-3.49,15.72,15.72,0,0,0,.75-1.51c0.21-.46.39-0.86,0.5-1.2l0.39-1.06Z" transform="translate(-4.65 -3.75)"/><polygon class="b" points="67.35 44.57 47.7 5.22 36.63 7.12 56.29 46.47 67.35 44.57"/><polygon class="c" points="64.99 2.26 64.26 2.39 61.79 22.25 58.84 46.03 59.56 45.91 62.49 22.33 64.99 2.26"/><polygon class="c" points="63.65 2.49 62.93 2.61 60.51 22.09 57.5 46.26 58.23 46.14 61.21 22.17 63.65 2.49"/><polygon class="c" points="62.32 2.72 61.59 2.84 59.22 21.93 56.17 46.49 56.9 46.37 59.92 22.02 62.32 2.72"/><polygon class="c" points="66.32 2.03 65.59 2.16 63.08 22.41 60.17 45.8 60.9 45.68 63.78 22.49 66.32 2.03"/><polygon class="c" points="70.32 1.35 69.59 1.47 66.93 22.89 64.17 45.12 64.89 45 67.63 22.97 70.32 1.35"/><polygon class="c" points="72.26 1.01 69.5 23.21 66.83 44.66 67.56 44.54 70.2 23.29 72.99 0.89 72.26 1.01"/><polygon class="c" points="67.65 1.8 66.93 1.93 64.36 22.57 61.5 45.58 62.23 45.45 65.06 22.65 67.65 1.8"/><polygon class="c" points="71.65 1.12 70.92 1.24 68.22 23.05 65.5 44.89 66.23 44.77 68.92 23.13 71.65 1.12"/><polygon class="c" points="68.99 1.57 68.26 1.7 65.64 22.73 62.83 45.35 63.56 45.22 66.35 22.81 68.99 1.57"/><rect class="b" x="78.29" y="19.41" width="10.81" height="42.1" transform="translate(-11.36 15.06) rotate(-12.33)"/><path class="c" d="M94.2,35.83l2.35-.51,1.21-.26C98,35,98.2,35,98.41,34.86a4.75,4.75,0,0,0,1.14-.59,5.26,5.26,0,0,0,.91-0.86,4.82,4.82,0,0,0,1-2,5,5,0,0,0,.07-1.55c0-.19-0.06-0.34-0.07-0.44l0-.15a3.63,3.63,0,0,0-.18-0.57,4.41,4.41,0,0,0-.79-1.34,4.94,4.94,0,0,0-1.79-1.3,4.61,4.61,0,0,0-1.2-.32,3.84,3.84,0,0,0-1.28,0L75.91,30.17l0.14,0.62L96.2,26.41a3.22,3.22,0,0,1,1.11,0,3.94,3.94,0,0,1,1,.27,4.3,4.3,0,0,1,1.55,1.12,3.76,3.76,0,0,1,.68,1.16,3,3,0,0,1,.16.49l0,0.13a3.44,3.44,0,0,0,.06.38,4.4,4.4,0,0,1-.06,1.34A4.16,4.16,0,0,1,100,33a4.63,4.63,0,0,1-.78.74,4.06,4.06,0,0,1-1,.51c-0.18.09-.34,0.09-0.56,0.17l-1.21.26-2.35.51-4.17.91L77.79,38.77l0.14,0.62L90,36.74Z" transform="translate(-4.65 -3.75)"/><path class="c" d="M94.45,37l2.35-.51L98,36.19A7.7,7.7,0,0,0,98.8,36a5.91,5.91,0,0,0,1.42-.74,6.38,6.38,0,0,0,1.13-1.07,6,6,0,0,0,1.19-2.48,6.17,6.17,0,0,0,.09-1.94c0-.23-0.07-0.42-0.09-0.55L102.49,29a4.6,4.6,0,0,0-.23-0.71,5.56,5.56,0,0,0-1-1.67A6.11,6.11,0,0,0,99,25a5.79,5.79,0,0,0-3.11-.38l-0.41.07-0.61.13-1.21.26-2.35.51-4.17.91L75.66,29l0.14,0.62L96,25.26a5.16,5.16,0,0,1,2.77.33,5.47,5.47,0,0,1,2,1.44,4.93,4.93,0,0,1,.88,1.49,4.06,4.06,0,0,1,.2.63l0,0.17c0,0.11,0,.28.08,0.49a5.51,5.51,0,0,1-.08,1.73,5.34,5.34,0,0,1-1.06,2.21,5.77,5.77,0,0,1-1,1,5.28,5.28,0,0,1-1.26.66,7.36,7.36,0,0,1-.71.21l-1.21.26-2.35.51-4.17.91L78,39.91l0.14,0.62,12.11-2.65Z" transform="translate(-4.65 -3.75)"/><path class="c" d="M94.7,38.11l2.35-.51,1.21-.26a9.15,9.15,0,0,0,.94-0.28,7.05,7.05,0,0,0,1.7-.89,7.61,7.61,0,0,0,1.36-1.28,7.16,7.16,0,0,0,1.42-3,7.38,7.38,0,0,0,.11-2.33l-0.11-.65-0.06-.22-0.62.16,0.06,0.2,0.1,0.59a6.72,6.72,0,0,1-.1,2.12,6.51,6.51,0,0,1-1.29,2.7,6.91,6.91,0,0,1-1.23,1.17,6.4,6.4,0,0,1-1.55.81,8.47,8.47,0,0,1-.86.26L96.92,37l-2.35.51-4.17.91L78.29,41l0.14,0.62L90.53,39Z" transform="translate(-4.65 -3.75)"/><path class="c" d="M95,39.25l2.35-.51,1.21-.26a10.24,10.24,0,0,0,1.09-.32,8.3,8.3,0,0,0,2-1,8.71,8.71,0,0,0,1.58-1.49,8.31,8.31,0,0,0,1.65-3.45,8.51,8.51,0,0,0,.13-2.72l-0.13-.76-0.07-.26-0.07-.26a4.65,4.65,0,0,0-.25-0.73A7.85,7.85,0,0,0,103,25.1a8.44,8.44,0,0,0-3.11-2.25,8.13,8.13,0,0,0-4.34-.53L95,22.41l-0.61.13-1.21.26-2.35.51-4.17.91L75.17,26.75l0.14,0.62,11.52-2.52L91,23.94l2.35-.51,1.21-.26L95.16,23l0.52-.09a7.49,7.49,0,0,1,4,.49,7.79,7.79,0,0,1,2.87,2.08,7.28,7.28,0,0,1,1.28,2.16,4.06,4.06,0,0,1,.23.67l0.07,0.24,0.07,0.24,0.12,0.7a7.85,7.85,0,0,1-.12,2.5,7.67,7.67,0,0,1-1.53,3.19,8,8,0,0,1-1.46,1.38,7.61,7.61,0,0,1-1.83,1,9.74,9.74,0,0,1-1,.3l-1.21.26-2.35.51-4.17.91L78.54,42.18l0.14,0.62,12.11-2.65Z" transform="translate(-4.65 -3.75)"/><path class="c" d="M95.2,40.39l2.35-.51,1.21-.26a11.4,11.4,0,0,0,1.24-.36,9.39,9.39,0,0,0,2.27-1.19,9.88,9.88,0,0,0,1.8-1.71A9.49,9.49,0,0,0,106,32.41a9.7,9.7,0,0,0,.14-3.1L106,28.44l-0.08-.3-0.62.16,0.08,0.28,0.13,0.8a9,9,0,0,1-.13,2.89,8.84,8.84,0,0,1-1.76,3.68,9.22,9.22,0,0,1-1.68,1.59,8.75,8.75,0,0,1-2.12,1.11,10.58,10.58,0,0,1-1.15.34l-1.21.26-2.35.51-4.17.91L78.79,43.32l0.14,0.62L91,41.3Z" transform="translate(-4.65 -3.75)"/><path class="c" d="M95.45,41.52L97.8,41,99,40.75a12.41,12.41,0,0,0,1.38-.41A10.52,10.52,0,0,0,102.94,39a11,11,0,0,0,2-1.92,10.66,10.66,0,0,0,2.12-4.43,10.86,10.86,0,0,0,.16-3.49l-0.16-1L107,27.86l-0.62.16,0.08,0.32,0.15,0.91a10.18,10.18,0,0,1-.15,3.28,10,10,0,0,1-2,4.17,10.44,10.44,0,0,1-1.91,1.8,9.94,9.94,0,0,1-2.4,1.26,11.79,11.79,0,0,1-1.3.38l-1.21.26-2.35.51-4.17.91L79,44.46l0.14,0.62,12.11-2.65Z" transform="translate(-4.65 -3.75)"/><path class="c" d="M95.7,42.66L98,42.15l1.21-.26a14,14,0,0,0,1.53-.45,11.75,11.75,0,0,0,2.84-1.49,12.19,12.19,0,0,0,2.25-2.13,11.83,11.83,0,0,0,2.36-4.92,12,12,0,0,0,.18-3.88l-0.18-1.08-0.1-.37-0.62.16,0.09,0.35,0.17,1a11.31,11.31,0,0,1-.17,3.67,11.18,11.18,0,0,1-2.23,4.66,11.63,11.63,0,0,1-2.13,2,11.12,11.12,0,0,1-2.68,1.41,12.94,12.94,0,0,1-1.45.43l-1.21.26L95.56,42,91.39,43,79.28,45.6l0.14,0.62,12.11-2.65Z" transform="translate(-4.65 -3.75)"/><path class="c" d="M95.95,43.8l2.35-.51L99.5,43a14.69,14.69,0,0,0,1.68-.49,12.86,12.86,0,0,0,3.12-1.64,13.4,13.4,0,0,0,2.48-2.34,13,13,0,0,0,2.59-5.41,13.16,13.16,0,0,0,.19-4.27l-0.2-1.18-0.11-.41-0.62.16,0.1,0.39L108.94,29a12.55,12.55,0,0,1-.18,4.06,12.35,12.35,0,0,1-2.46,5.14,12.73,12.73,0,0,1-2.36,2.23,12.27,12.27,0,0,1-3,1.56,14.32,14.32,0,0,1-1.6.47l-1.21.26-2.35.51-4.17.91L79.53,46.74l0.14,0.62,12.11-2.65Z" transform="translate(-4.65 -3.75)"/><path class="c" d="M110.72,28.73c-0.08-.56-0.16-1-0.22-1.29L110.39,27l-0.62.16,0.11,0.43,0.21,1.23a13.72,13.72,0,0,1-.2,4.44,13.51,13.51,0,0,1-2.7,5.63,13.92,13.92,0,0,1-2.58,2.44,13.45,13.45,0,0,1-3.25,1.7,15.44,15.44,0,0,1-1.75.51l-1.21.26-2.35.51-4.17.91L79.78,47.87l0.14,0.62L92,45.85l4.17-.91,2.35-.51,1.21-.26a16.32,16.32,0,0,0,1.83-.53,14.13,14.13,0,0,0,3.4-1.79,14.59,14.59,0,0,0,2.7-2.55,14.16,14.16,0,0,0,2.83-5.9A14.33,14.33,0,0,0,110.72,28.73Z" transform="translate(-4.65 -3.75)"/><path class="c" d="M102.15,25.86a7.27,7.27,0,0,0-2.67-1.93,7,7,0,0,0-3.72-.45l-0.48.08-0.61.13-1.21.27-2.35.51-4.17.91L75.42,27.89l0.14,0.62L87.07,26l4.17-.91,2.35-.51,1.21-.26,0.61-.13,0.44-.07a6.34,6.34,0,0,1,3.39.41,6.64,6.64,0,0,1,2.43,1.76,6.08,6.08,0,0,1,1.08,1.82,5,5,0,0,1,.25.77l0.62-.15a5.56,5.56,0,0,0-.27-0.85A6.69,6.69,0,0,0,102.15,25.86Z" transform="translate(-4.65 -3.75)"/><path class="c" d="M105.51,27a9,9,0,0,0-1.59-2.67,9.61,9.61,0,0,0-3.55-2.57,9.29,9.29,0,0,0-5-.6c-3.31.66-6.52,1.41-9,1.93L74.92,25.61l0.14,0.62,11.52-2.52c2.43-.52,5.71-1.28,8.93-1.92a8.67,8.67,0,0,1,4.62.56,9,9,0,0,1,3.31,2.4,8.42,8.42,0,0,1,1.48,2.49,5.14,5.14,0,0,1,.26.77l0.08,0.28,0.62-.15-0.08-.3A5.61,5.61,0,0,0,105.51,27Z" transform="translate(-4.65 -3.75)"/><path class="c" d="M90.49,21.66l2.35-.51,1.21-.26,0.61-.13,0.67-.11a9.82,9.82,0,0,1,5.24.64A10.14,10.14,0,0,1,104.32,24,9.59,9.59,0,0,1,106,26.82a6.18,6.18,0,0,1,.3.88L106.39,28l0.62-.16-0.09-.34a6.74,6.74,0,0,0-.32-0.93,10.23,10.23,0,0,0-1.79-3,10.78,10.78,0,0,0-4-2.89A10.46,10.46,0,0,0,95.24,20l-0.71.12-0.61.13-1.21.26L90.36,21,86.19,22,74.67,24.47l0.14,0.62,11.52-2.52Z" transform="translate(-4.65 -3.75)"/><path class="c" d="M108,27.2a7.74,7.74,0,0,0-.35-1,11.39,11.39,0,0,0-2-3.34,11.94,11.94,0,0,0-4.42-3.21,11.64,11.64,0,0,0-6.2-.76L94.27,19l-0.61.13-1.21.26-2.35.51-4.17.91L74.42,23.33,74.55,24l11.52-2.52,4.17-.91L92.59,20l1.21-.26,0.61-.13,0.75-.13a11,11,0,0,1,5.86.71,11.33,11.33,0,0,1,4.18,3,10.77,10.77,0,0,1,1.88,3.16,7,7,0,0,1,.33,1l0.1,0.35,0.62-.16Z" transform="translate(-4.65 -3.75)"/><path class="c" d="M109.15,26.87a8.52,8.52,0,0,0-.39-1.14,12.58,12.58,0,0,0-2.2-3.68,13.11,13.11,0,0,0-4.86-3.53,12.8,12.8,0,0,0-6.82-.83L94,17.85,93.42,18l-1.21.26-2.35.51-4.17.91L74.17,22.19l0.14,0.62,11.52-2.52L90,19.38l2.35-.51,1.21-.26,0.61-.13L95,18.33a12.17,12.17,0,0,1,6.48.79,12.47,12.47,0,0,1,4.62,3.35A11.92,11.92,0,0,1,108.17,26a8.18,8.18,0,0,1,.37,1.08l0.11,0.39,0.62-.16Z" transform="translate(-4.65 -3.75)"/><path class="c" d="M89.74,18.24l2.35-.51,1.21-.26,0.61-.13,0.9-.15a13.32,13.32,0,0,1,7.1.87A13.63,13.63,0,0,1,107,21.71a13.09,13.09,0,0,1,2.29,3.83,9.21,9.21,0,0,1,.4,1.18l0.11,0.43,0.62-.16-0.12-.45a9.79,9.79,0,0,0-.42-1.24,13.73,13.73,0,0,0-2.4-4,14.27,14.27,0,0,0-5.3-3.85,14,14,0,0,0-7.44-.91l-0.94.16-0.61.13L92,17.1l-2.35.51-4.17.91L73.92,21l0.14,0.62,11.52-2.52Z" transform="translate(-4.65 -3.75)"/><path class="b" d="M117.43,54.64L104.67,42a13.58,13.58,0,0,1-3.09,1.58,16.32,16.32,0,0,1-1.83.53l-1.21.26-2.35.51-3.4.74,11.82,11.75Z" transform="translate(-4.65 -3.75)"/><g class="e"><path class="d" d="M130.61,72.71l2-3.94h0a1,1,0,0,1,.15-0.19,0.93,0.93,0,0,1,1.58.66,0.9,0.9,0,0,1-.12.46h0l-2.78,5.56h0a0.88,0.88,0,0,1-.15.19,0.9,0.9,0,0,1-.66.27,0.88,0.88,0,0,1-.65-0.27,0.87,0.87,0,0,1-.15-0.19h0L127,69.7h0a0.91,0.91,0,0,1-.12-0.46,0.92,0.92,0,0,1,.93-0.93,0.91,0.91,0,0,1,.66.27,1.1,1.1,0,0,1,.15.19h0Z" transform="translate(-4.65 -3.75)"/><path class="d" d="M135.85,73.4l0.05,0.06a1.34,1.34,0,0,0,1,.41h1.39a0.93,0.93,0,1,1,0,1.85h-1.39a3.24,3.24,0,1,1,3.24-3.24,0.92,0.92,0,0,1-.93.93h-3.35Zm2.07-1.85-0.05-.05a1.39,1.39,0,0,0-2,0l-0.05.05h2.07Z" transform="translate(-4.65 -3.75)"/><path class="d" d="M142.63,69.5a2.74,2.74,0,0,1,1.2-.26,2.69,2.69,0,0,1,2,.81,3.28,3.28,0,0,1,.36.44,0.93,0.93,0,0,1-.71,1.53,0.88,0.88,0,0,1-.65-0.27l-0.31-.38a0.93,0.93,0,0,0-1.58.66v2.78a0.92,0.92,0,0,1-.93.93,0.93,0.93,0,0,1-.92-0.93V70.16A0.93,0.93,0,0,1,142.63,69.5Z" transform="translate(-4.65 -3.75)"/><path class="d" d="M149.39,73.86h0.23a0.23,0.23,0,0,0,.17-0.4,0.23,0.23,0,0,0-.17-0.07h-0.23a2.08,2.08,0,0,1,0-4.17h0.69a2,2,0,0,1,1.22.39l0.06,0,0.19,0.17h0a0.91,0.91,0,0,1,.17.54,0.93,0.93,0,0,1-.93.93,1,1,0,0,1-.46-0.12,1.62,1.62,0,0,0-.7-0.12h-0.23a0.23,0.23,0,1,0,0,.46h0.23a2.08,2.08,0,0,1,0,4.17h-0.69a2,2,0,0,1-1.22-.39l-0.06,0-0.19-.17v0a0.93,0.93,0,0,1,.76-1.45,1.07,1.07,0,0,1,.46.12A1.61,1.61,0,0,0,149.39,73.86Z" transform="translate(-4.65 -3.75)"/><path class="d" d="M130.89,84.18a2.73,2.73,0,0,1-1.2.26,2.77,2.77,0,0,1-2.78-2.78V78.88a0.93,0.93,0,1,1,1.85,0v2.78a0.93,0.93,0,1,0,1.85,0V78.88a0.93,0.93,0,1,1,1.85,0v4.63A0.93,0.93,0,0,1,130.89,84.18Z" transform="translate(-4.65 -3.75)"/><path class="d" d="M135,78.22a2.74,2.74,0,0,1,1.2-.26,2.78,2.78,0,0,1,2.78,2.78v2.78a0.93,0.93,0,1,1-1.85,0V80.74a0.93,0.93,0,1,0-1.85,0v2.78a0.93,0.93,0,1,1-1.85,0V78.88A0.93,0.93,0,0,1,135,78.22Z" transform="translate(-4.65 -3.75)"/><path class="d" d="M145.57,78.22a2.73,2.73,0,0,1,1.2-.26,2.69,2.69,0,0,1,2,.81,3.19,3.19,0,0,1,.36.44,0.93,0.93,0,0,1-.71,1.53,0.88,0.88,0,0,1-.65-0.27l-0.31-.38a0.9,0.9,0,0,0-.66-0.27,0.93,0.93,0,0,0-.93.93v2.78a0.93,0.93,0,1,1-1.85,0V78.88A0.93,0.93,0,0,1,145.57,78.22Z" transform="translate(-4.65 -3.75)"/><path class="d" d="M152,82.13L152,82.18a1.34,1.34,0,0,0,1,.41h1.39a0.93,0.93,0,1,1,0,1.85H153a3.24,3.24,0,1,1,3.24-3.24,0.92,0.92,0,0,1-.93.93H152Zm1.58-3.76a1.4,1.4,0,0,1-.66.27,0.93,0.93,0,0,1-.65-1.58l1.08-.71a1.38,1.38,0,0,1,.65-0.27,0.93,0.93,0,0,1,.66,1.58ZM154,80.27L154,80.22a1.39,1.39,0,0,0-2,0l-0.05.06H154Z" transform="translate(-4.65 -3.75)"/><path class="d" d="M159.26,82.59h0.23a0.23,0.23,0,0,0,.17-0.07,0.23,0.23,0,0,0-.17-0.4h-0.23a2.08,2.08,0,0,1,0-4.17H160a2,2,0,0,1,1.22.39l0.06,0,0.19,0.17h0a0.91,0.91,0,0,1,.17.54,0.93,0.93,0,0,1-.93.93,1,1,0,0,1-.46-0.12,1.61,1.61,0,0,0-.7-0.12h-0.23a0.23,0.23,0,0,0-.17.4,0.23,0.23,0,0,0,.17.07h0.23a2.08,2.08,0,0,1,0,4.17H158.8a2,2,0,0,1-1.22-.39l-0.06,0-0.19-.17v0a0.88,0.88,0,0,1-.16-0.52,0.92,0.92,0,0,1,.93-0.93,1.06,1.06,0,0,1,.46.12A1.61,1.61,0,0,0,159.26,82.59Z" transform="translate(-4.65 -3.75)"/><path class="d" d="M164.71,82.13l0.05,0.06a1.34,1.34,0,0,0,1,.41h1.39a0.93,0.93,0,1,1,0,1.85h-1.39A3.24,3.24,0,1,1,169,81.2a0.93,0.93,0,0,1-.93.93h-3.35Zm2.06-1.85-0.05-.06a1.39,1.39,0,0,0-2,0l-0.05.06h2.06Z" transform="translate(-4.65 -3.75)"/><path class="d" d="M174.71,84.05a3.16,3.16,0,0,1-1.56.39,3.24,3.24,0,1,1,0-6.48,3.16,3.16,0,0,1,1.56.39l0.1-.12a0.93,0.93,0,0,1,1.58.66v4.63a0.92,0.92,0,0,1-.93.93,0.88,0.88,0,0,1-.65-0.27Zm-0.58-1.87a1.39,1.39,0,1,0-1,.41A1.34,1.34,0,0,0,174.13,82.18Z" transform="translate(-4.65 -3.75)"/><path class="d" d="M181.3,84.18a2.73,2.73,0,0,1-1.2.26,2.77,2.77,0,0,1-2.78-2.78V78.88a0.93,0.93,0,1,1,1.85,0v2.78a0.93,0.93,0,1,0,1.85,0V78.88a0.93,0.93,0,1,1,1.85,0v4.63A0.93,0.93,0,0,1,181.3,84.18Z" transform="translate(-4.65 -3.75)"/><path class="b" d="M131.54,86.68a0.93,0.93,0,1,1,1.85,0v5.56a0.92,0.92,0,0,1-.93.93,0.88,0.88,0,0,1-.65-0.27l-0.1-.12a3.24,3.24,0,1,1-.17-5.79v-0.3Zm-1.39,4.63a1.39,1.39,0,1,0-1-.41A1.34,1.34,0,0,0,130.15,91.31Z" transform="translate(-4.65 -3.75)"/><path class="b" d="M134.32,86.68a0.93,0.93,0,1,1,1.85,0v1.85a0.93,0.93,0,1,1-1.85,0V86.68Z" transform="translate(-4.65 -3.75)"/><path class="b" d="M141.9,92.78a3.15,3.15,0,0,1-1.56.39,3.24,3.24,0,0,1,0-6.48,3.16,3.16,0,0,1,1.56.39L142,87a0.93,0.93,0,0,1,1.31,0,0.9,0.9,0,0,1,.27.66v4.63a0.92,0.92,0,0,1-.93.93,0.88,0.88,0,0,1-.65-0.27Zm-0.58-1.87a1.39,1.39,0,1,0-1,.41A1.34,1.34,0,0,0,141.32,90.91Z" transform="translate(-4.65 -3.75)"/><path class="b" d="M150.23,87.86l0,0a0.91,0.91,0,0,1,.27.66,0.92,0.92,0,0,1-.93.93,0.88,0.88,0,0,1-.65-0.27,0.84,0.84,0,0,1-.16-0.2l-0.06,0a1.39,1.39,0,1,0,0,2l0.07-.05a1,1,0,0,1,.15-0.2A0.93,0.93,0,0,1,150.25,92l0,0a1.85,1.85,0,0,1-.2.23,3.24,3.24,0,1,1,0-4.58A1.69,1.69,0,0,1,150.23,87.86Z" transform="translate(-4.65 -3.75)"/><path class="b" d="M153.3,86.83a2.83,2.83,0,0,1,.93-0.15A2.77,2.77,0,0,1,157,89.46v2.78a0.93,0.93,0,1,1-1.85,0V89.46a0.93,0.93,0,0,0-1.85,0v2.78a0.93,0.93,0,1,1-1.85,0V86.68a0.93,0.93,0,0,1,1.85,0v0.15Z" transform="translate(-4.65 -3.75)"/><path class="b" d="M162.73,92.78a3.15,3.15,0,0,1-1.56.39,3.24,3.24,0,0,1,0-6.48,3.16,3.16,0,0,1,1.56.39l0.1-.12a0.93,0.93,0,0,1,1.31,0,0.9,0.9,0,0,1,.27.66v4.63a0.92,0.92,0,0,1-.93.93,0.88,0.88,0,0,1-.65-0.27Zm-0.58-1.87a1.39,1.39,0,1,0-1,.41A1.34,1.34,0,0,0,162.15,90.91Z" transform="translate(-4.65 -3.75)"/><path class="b" d="M165.34,86.68a0.93,0.93,0,1,1,1.85,0h0.46a0.93,0.93,0,1,1,0,1.85h-0.46v1.85a0.93,0.93,0,0,0,1.58.66l0.31-.38a0.88,0.88,0,0,1,.65-0.27,0.93,0.93,0,0,1,.71,1.53,3.06,3.06,0,0,1-.36.44,2.78,2.78,0,0,1-4.75-2v-3.7Z" transform="translate(-4.65 -3.75)"/><path class="b" d="M129.12,99.57l0.05,0.06a1.33,1.33,0,0,0,1,.41h1.39a0.93,0.93,0,1,1,0,1.85h-1.39a3.24,3.24,0,1,1,3.24-3.24,0.92,0.92,0,0,1-.93.93h-3.35Zm2.07-1.85-0.05-.06a1.38,1.38,0,0,0-2,0l-0.05.06h2.07Z" transform="translate(-4.65 -3.75)"/><path class="b" d="M135.89,95.67a2.73,2.73,0,0,1,1.2-.26,2.77,2.77,0,0,1,2.78,2.78V101a0.93,0.93,0,1,1-1.85,0V98.18a0.93,0.93,0,1,0-1.85,0V101a0.93,0.93,0,1,1-1.85,0V96.33A0.93,0.93,0,0,1,135.89,95.67Z" transform="translate(-4.65 -3.75)"/><path class="b" d="M150.65,96.58l0,0a0.91,0.91,0,0,1,.27.66,0.92,0.92,0,0,1-.93.93,0.88,0.88,0,0,1-.65-0.27,0.84,0.84,0,0,1-.16-0.2l-0.06,0a1.39,1.39,0,1,0,0,2l0.07-.05a1,1,0,0,1,.15-0.2,0.93,0.93,0,0,1,1.31,1.31l0,0a1.7,1.7,0,0,1-.2.23,3.24,3.24,0,1,1,0-4.58A1.72,1.72,0,0,1,150.65,96.58Z" transform="translate(-4.65 -3.75)"/><path class="b" d="M155.1,101.89a3.24,3.24,0,1,1,2.29-.95A3.12,3.12,0,0,1,155.1,101.89Zm1-2.26a1.39,1.39,0,1,0-1,.41A1.34,1.34,0,0,0,156.09,99.63Z" transform="translate(-4.65 -3.75)"/><path class="b" d="M166.68,101a0.93,0.93,0,1,1-1.85,0V97.72a0.46,0.46,0,0,0-.93,0V101a0.93,0.93,0,1,1-1.85,0V97.72a0.46,0.46,0,0,0-.93,0V101a0.93,0.93,0,1,1-1.85,0V96.33a0.92,0.92,0,0,1,.93-0.93,0.88,0.88,0,0,1,.52.16,2.27,2.27,0,0,1,.87-0.16,2.22,2.22,0,0,1,1.39.46,2.32,2.32,0,0,1,3.7,1.86V101Z" transform="translate(-4.65 -3.75)"/><path class="b" d="M175,101a0.93,0.93,0,1,1-1.85,0V97.72a0.46,0.46,0,0,0-.93,0V101a0.93,0.93,0,1,1-1.85,0V97.72a0.46,0.46,0,0,0-.93,0V101a0.93,0.93,0,1,1-1.85,0V96.33a0.93,0.93,0,0,1,.93-0.93,0.88,0.88,0,0,1,.52.16,2.28,2.28,0,0,1,.87-0.16,2.22,2.22,0,0,1,1.39.46,2.32,2.32,0,0,1,3.7,1.86V101Z" transform="translate(-4.65 -3.75)"/><path class="b" d="M179.92,101.62a2.73,2.73,0,0,1-1.2.26,2.77,2.77,0,0,1-2.78-2.78V96.33a0.93,0.93,0,1,1,1.85,0v2.78a0.93,0.93,0,1,0,1.85,0V96.33a0.93,0.93,0,1,1,1.85,0V101a0.92,0.92,0,0,1-.93.93A0.89,0.89,0,0,1,179.92,101.62Z" transform="translate(-4.65 -3.75)"/><path class="b" d="M184,95.67a2.73,2.73,0,0,1,1.2-.26A2.77,2.77,0,0,1,188,98.18V101a0.93,0.93,0,1,1-1.85,0V98.18a0.93,0.93,0,1,0-1.85,0V101a0.93,0.93,0,1,1-1.85,0V96.33a0.92,0.92,0,0,1,.93-0.93A0.89,0.89,0,0,1,184,95.67Z" transform="translate(-4.65 -3.75)"/></g><path class="b" d="M55.37,93.62a9.89,9.89,0,1,0,9.89-9.89A9.89,9.89,0,0,0,55.37,93.62Z" transform="translate(-4.65 -3.75)"/><path class="b" d="M4.65,16.31A5.34,5.34,0,0,0,10,21.65h8.45L53.51,79.24h58.68a5.34,5.34,0,0,0,0-10.68H59.51L24.43,11H10A5.34,5.34,0,0,0,4.65,16.31Z" transform="translate(-4.65 -3.75)"/><circle class="b" cx="99.19" cy="89.88" r="9.88"/><polyline class="d" points="142.16 37.24 117.48 35.8 117.69 35.28 142.01 36.7 141.83 36.05 117.94 34.66 118.15 34.14 141.68 35.51 141.5 34.86 118.41 33.52 118.62 33 141.35 34.33 141.17 33.68 118.87 32.38 119.08 31.86 141.02 33.14 140.84 32.49 119.33 31.24 119.55 30.72 140.69 31.95 140.51 31.31 119.8 30.1 120.01 29.58 140.36 30.77 140.18 30.12 120.26 28.96 120.47 28.44 140.03 29.58 139.85 28.93 120.73 27.82 120.94 27.3 139.7 28.39"/></g></svg>